{"asset":{"version":"2.0","generator":"Blockbench 4.12.3 glTF exporter"},"scenes":[{"nodes":[6],"name":"blockbench_export"}],"scene":0,"nodes":[{"rotation":[-0.3214394653031616,0,0,0.9469301294951057],"translation":[0,0.0625,-0.1875],"name":"cuboid","mesh":0},{"translation":[0,0,0.125],"name":"beveled_cuboid","mesh":1},{"rotation":[-0.3214394653031616,0,0,0.9469301294951057],"translation":[0.09375,0.0625,-0.21875],"name":"cuboid","mesh":2},{"rotation":[-0.3214394653031616,0,0,0.9469301294951057],"translation":[-0.03125,0.0625,-0.21875],"name":"cuboid","mesh":3},{"rotation":[-0.3214394653031616,0,0,0.9469301294951057],"translation":[0.03125,0.0625,-0.21875],"name":"cuboid","mesh":4},{"rotation":[-0.3214394653031616,0,0,0.9469301294951057],"translation":[-0.09375,0.0625,-0.21875],"name":"cuboid","mesh":5},{"children":[0,1,2,3,4,5]}],"bufferViews":[{"buffer":0,"byteOffset":0,"byteLength":336,"target":34962,"byteStride":12},{"buffer":0,"byteOffset":336,"byteLength":336,"target":34962,"byteStride":12},{"buffer":0,"byteOffset":672,"byteLength":224,"target":34962,"byteStride":8},{"buffer":0,"byteOffset":896,"byteLength":72,"target":34963},{"buffer":0,"byteOffset":968,"byteLength":1152,"target":34962,"byteStride":12},{"buffer":0,"byteOffset":2120,"byteLength":1152,"target":34962,"byteStride":12},{"buffer":0,"byteOffset":3272,"byteLength":768,"target":34962,"byteStride":8},{"buffer":0,"byteOffset":4040,"byteLength":264,"target":34963},{"buffer":0,"byteOffset":4304,"byteLength":336,"target":34962,"byteStride":12},{"buffer":0,"byteOffset":4640,"byteLength":336,"target":34962,"byteStride":12},{"buffer":0,"byteOffset":4976,"byteLength":224,"target":34962,"byteStride":8},{"buffer":0,"byteOffset":5200,"byteLength":72,"target":34963},{"buffer":0,"byteOffset":5272,"byteLength":336,"target":34962,"byteStride":12},{"buffer":0,"byteOffset":5608,"byteLength":336,"target":34962,"byteStride":12},{"buffer":0,"byteOffset":5944,"byteLength":224,"target":34962,"byteStride":8},{"buffer":0,"byteOffset":6168,"byteLength":72,"target":34963},{"buffer":0,"byteOffset":6240,"byteLength":336,"target":34962,"byteStride":12},{"buffer":0,"byteOffset":6576,"byteLength":336,"target":34962,"byteStride":12},{"buffer":0,"byteOffset":6912,"byteLength":224,"target":34962,"byteStride":8},{"buffer":0,"byteOffset":7136,"byteLength":72,"target":34963},{"buffer":0,"byteOffset":7208,"byteLength":336,"target":34962,"byteStride":12},{"buffer":0,"byteOffset":7544,"byteLength":336,"target":34962,"byteStride":12},{"buffer":0,"byteOffset":7880,"byteLength":224,"target":34962,"byteStride":8},{"buffer":0,"byteOffset":8104,"byteLength":72,"target":34963}],"buffers":[{"byteLength":8176,"uri":"data:application/octet-stream;base64,"}],"accessors":[{"bufferView":0,"componentType":5126,"count":28,"max":[0.140625,0.390625,0.140625],"min":[-0.140625,0.109375,-0.140625],"type":"VEC3"},{"bufferView":1,"componentType":5126,"count":28,"max":[1,1,1],"min":[-1,-1,-1],"type":"VEC3"},{"bufferView":2,"componentType":5126,"count":28,"max":[0.6796875,0.703125],"min":[0,0],"type":"VEC2"},{"bufferView":3,"componentType":5123,"count":36,"max":[27],"min":[0],"type":"SCALAR"},{"bufferView":4,"componentType":5126,"count":96,"max":[0.125,0.375,0.3125],"min":[-0.125,0.125,-0.3125],"type":"VEC3"},{"bufferView":5,"componentType":5126,"count":96,"max":[1,1,1],"min":[-1,-1,-1],"type":"VEC3"},{"bufferView":6,"componentType":5126,"count":96,"max":[0.75,0.78125],"min":[0.0028190347366034985,0],"type":"VEC2"},{"bufferView":7,"componentType":5123,"count":132,"max":[95],"min":[0],"type":"SCALAR"},{"bufferView":8,"componentType":5126,"count":28,"max":[0.015625,0.390625,0.140625],"min":[-0.015625,0.109375,-0.140625],"type":"VEC3"},{"bufferView":9,"componentType":5126,"count":28,"max":[1,1,1],"min":[-1,-1,-1],"type":"VEC3"},{"bufferView":10,"componentType":5126,"count":28,"max":[0.8046875,0.90625],"min":[0,0],"type":"VEC2"},{"bufferView":11,"componentType":5123,"count":36,"max":[27],"min":[0],"type":"SCALAR"},{"bufferView":12,"componentType":5126,"count":28,"max":[0.015625,0.390625,0.140625],"min":[-0.015625,0.109375,-0.140625],"type":"VEC3"},{"bufferView":13,"componentType":5126,"count":28,"max":[1,1,1],"min":[-1,-1,-1],"type":"VEC3"},{"bufferView":14,"componentType":5126,"count":28,"max":[0.8046875,0.90625],"min":[0,0],"type":"VEC2"},{"bufferView":15,"componentType":5123,"count":36,"max":[27],"min":[0],"type":"SCALAR"},{"bufferView":16,"componentType":5126,"count":28,"max":[0.015625,0.390625,0.140625],"min":[-0.015625,0.109375,-0.140625],"type":"VEC3"},{"bufferView":17,"componentType":5126,"count":28,"max":[1,1,1],"min":[-1,-1,-1],"type":"VEC3"},{"bufferView":18,"componentType":5126,"count":28,"max":[0.8046875,0.90625],"min":[0,0],"type":"VEC2"},{"bufferView":19,"componentType":5123,"count":36,"max":[27],"min":[0],"type":"SCALAR"},{"bufferView":20,"componentType":5126,"count":28,"max":[0.015625,0.390625,0.140625],"min":[-0.015625,0.109375,-0.140625],"type":"VEC3"},{"bufferView":21,"componentType":5126,"count":28,"max":[1,1,1],"min":[-1,-1,-1],"type":"VEC3"},{"bufferView":22,"componentType":5126,"count":28,"max":[0.8046875,0.90625],"min":[0,0],"type":"VEC2"},{"bufferView":23,"componentType":5123,"count":36,"max":[27],"min":[0],"type":"SCALAR"}],"materials":[{"pbrMetallicRoughness":{"metallicFactor":0,"roughnessFactor":1,"baseColorTexture":{"index":0}},"alphaMode":"MASK","alphaCutoff":0.05,"doubleSided":true}],"textures":[{"sampler":0,"source":0,"name":"texture"}],"samplers":[{"magFilter":9728,"minFilter":9728,"wrapS":33071,"wrapT":33071}],"images":[{"mimeType":"image/png","uri":"data:image/png;base64,"}],"meshes":[{"primitives":[{"mode":4,"attributes":{"POSITION":0,"NORMAL":1,"TEXCOORD_0":2},"indices":3,"material":0}]},{"primitives":[{"mode":4,"attributes":{"POSITION":4,"NORMAL":5,"TEXCOORD_0":6},"indices":7,"material":0}]},{"primitives":[{"mode":4,"attributes":{"POSITION":8,"NORMAL":9,"TEXCOORD_0":10},"indices":11,"material":0}]},{"primitives":[{"mode":4,"attributes":{"POSITION":12,"NORMAL":13,"TEXCOORD_0":14},"indices":15,"material":0}]},{"primitives":[{"mode":4,"attributes":{"POSITION":16,"NORMAL":17,"TEXCOORD_0":18},"indices":19,"material":0}]},{"primitives":[{"mode":4,"attributes":{"POSITION":20,"NORMAL":21,"TEXCOORD_0":22},"indices":23,"material":0}]}]}