{"asset":{"version":"2.0","generator":"Blockbench 4.12.3 glTF exporter"},"scenes":[{"nodes":[17],"name":"blockbench_export"}],"scene":0,"nodes":[{"translation":[0,-0.125,0],"name":"beveled_cuboid","mesh":0},{"translation":[0,0.625,-0.1875],"name":"cone","mesh":1},{"translation":[0,0.625,-0.15624999999999994],"name":"beveled_cuboid_selection","mesh":2},{"translation":[0,0.625,-0.125],"name":"beveled_cuboid","mesh":3},{"rotation":[0,-0.2798290140309921,0,0.9600498543859287],"name":"beveled_cuboid","mesh":4},{"translation":[-0.0625,-0.125,0.375],"name":"seg1","children":[4]},{"rotation":[0,-0.9320078692827984,0,0.3624380382837017],"name":"beveled_cuboid","mesh":5},{"translation":[0,-0.125,0.75],"name":"seg2","children":[6]},{"rotation":[7.403161119568527e-17,-0.9713420698132615,7.403161119568527e-17,-0.23768589232617268],"name":"beveled_cuboid","mesh":6},{"translation":[0,-0.125,1.0625],"name":"seg3","children":[8]},{"rotation":[-2.3471923905810207e-20,0.4027466898587385,-5.3344004876965436e-20,0.9153114791194465],"translation":[-0.125,-0.5,-0.375],"name":"beveled_cuboid","mesh":7},{"rotation":[-0.7071067811865475,0,0,0.7071067811865476],"name":"beveled_cuboid","mesh":8},{"translation":[0.1875,0.375,1.8125],"name":"Tip","children":[10,11]},{"translation":[0.025,0,0.125],"name":"cuboid","mesh":9},{"rotation":[0,-0.3007057995042731,0,0.9537169507482269],"translation":[0.05,0,0],"name":"cuboid","mesh":10},{"rotation":[0,0.3007057995042731,0,0.9537169507482269],"name":"cuboid","mesh":11},{"translation":[-0.025,0.5625,-0.5625],"name":"tounge","children":[13,14,15]},{"children":[0,1,2,3,5,7,9,12,16]}],"bufferViews":[{"buffer":0,"byteOffset":0,"byteLength":1152,"target":34962,"byteStride":12},{"buffer":0,"byteOffset":1152,"byteLength":1152,"target":34962,"byteStride":12},{"buffer":0,"byteOffset":2304,"byteLength":768,"target":34962,"byteStride":8},{"buffer":0,"byteOffset":3072,"byteLength":264,"target":34963},{"buffer":0,"byteOffset":3336,"byteLength":864,"target":34962,"byteStride":12},{"buffer":0,"byteOffset":4200,"byteLength":864,"target":34962,"byteStride":12},{"buffer":0,"byteOffset":5064,"byteLength":576,"target":34962,"byteStride":8},{"buffer":0,"byteOffset":5640,"byteLength":144,"target":34963},{"buffer":0,"byteOffset":5784,"byteLength":1488,"target":34962,"byteStride":12},{"buffer":0,"byteOffset":7272,"byteLength":1488,"target":34962,"byteStride":12},{"buffer":0,"byteOffset":8760,"byteLength":992,"target":34962,"byteStride":8},{"buffer":0,"byteOffset":9752,"byteLength":360,"target":34963},{"buffer":0,"byteOffset":10112,"byteLength":2304,"target":34962,"byteStride":12},{"buffer":0,"byteOffset":12416,"byteLength":2304,"target":34962,"byteStride":12},{"buffer":0,"byteOffset":14720,"byteLength":1536,"target":34962,"byteStride":8},{"buffer":0,"byteOffset":16256,"byteLength":552,"target":34963},{"buffer":0,"byteOffset":16808,"byteLength":1152,"target":34962,"byteStride":12},{"buffer":0,"byteOffset":17960,"byteLength":1152,"target":34962,"byteStride":12},{"buffer":0,"byteOffset":19112,"byteLength":768,"target":34962,"byteStride":8},{"buffer":0,"byteOffset":19880,"byteLength":264,"target":34963},{"buffer":0,"byteOffset":20144,"byteLength":1152,"target":34962,"byteStride":12},{"buffer":0,"byteOffset":21296,"byteLength":1152,"target":34962,"byteStride":12},{"buffer":0,"byteOffset":22448,"byteLength":768,"target":34962,"byteStride":8},{"buffer":0,"byteOffset":23216,"byteLength":264,"target":34963},{"buffer":0,"byteOffset":23480,"byteLength":1152,"target":34962,"byteStride":12},{"buffer":0,"byteOffset":24632,"byteLength":1152,"target":34962,"byteStride":12},{"buffer":0,"byteOffset":25784,"byteLength":768,"target":34962,"byteStride":8},{"buffer":0,"byteOffset":26552,"byteLength":264,"target":34963},{"buffer":0,"byteOffset":26816,"byteLength":1152,"target":34962,"byteStride":12},{"buffer":0,"byteOffset":27968,"byteLength":1152,"target":34962,"byteStride":12},{"buffer":0,"byteOffset":29120,"byteLength":768,"target":34962,"byteStride":8},{"buffer":0,"byteOffset":29888,"byteLength":264,"target":34963},{"buffer":0,"byteOffset":30152,"byteLength":1152,"target":34962,"byteStride":12},{"buffer":0,"byteOffset":31304,"byteLength":1152,"target":34962,"byteStride":12},{"buffer":0,"byteOffset":32456,"byteLength":768,"target":34962,"byteStride":8},{"buffer":0,"byteOffset":33224,"byteLength":264,"target":34963},{"buffer":0,"byteOffset":33488,"byteLength":288,"target":34962,"byteStride":12},{"buffer":0,"byteOffset":33776,"byteLength":288,"target":34962,"byteStride":12},{"buffer":0,"byteOffset":34064,"byteLength":192,"target":34962,"byteStride":8},{"buffer":0,"byteOffset":34256,"byteLength":72,"target":34963},{"buffer":0,"byteOffset":34328,"byteLength":288,"target":34962,"byteStride":12},{"buffer":0,"byteOffset":34616,"byteLength":288,"target":34962,"byteStride":12},{"buffer":0,"byteOffset":34904,"byteLength":192,"target":34962,"byteStride":8},{"buffer":0,"byteOffset":35096,"byteLength":72,"target":34963},{"buffer":0,"byteOffset":35168,"byteLength":288,"target":34962,"byteStride":12},{"buffer":0,"byteOffset":35456,"byteLength":288,"target":34962,"byteStride":12},{"buffer":0,"byteOffset":35744,"byteLength":192,"target":34962,"byteStride":8},{"buffer":0,"byteOffset":35936,"byteLength":72,"target":34963},{"buffer":0,"byteOffset":36008,"byteLength":12},{"buffer":0,"byteOffset":36020,"byteLength":48},{"buffer":0,"byteOffset":36068,"byteLength":12},{"buffer":0,"byteOffset":36080,"byteLength":36},{"buffer":0,"byteOffset":36116,"byteLength":12},{"buffer":0,"byteOffset":36128,"byteLength":48},{"buffer":0,"byteOffset":36176,"byteLength":12},{"buffer":0,"byteOffset":36188,"byteLength":48},{"buffer":0,"byteOffset":36236,"byteLength":12},{"buffer":0,"byteOffset":36248,"byteLength":48},{"buffer":0,"byteOffset":36296,"byteLength":12},{"buffer":0,"byteOffset":36308,"byteLength":36},{"buffer":0,"byteOffset":36344,"byteLength":12},{"buffer":0,"byteOffset":36356,"byteLength":36}],"buffers":[{"byteLength":36392,"uri":"data:application/octet-stream;base64,"}],"accessors":[{"bufferView":0,"componentType":5126,"count":96,"max":[0.125,0.375,0.25],"min":[-0.125,0.125,-0.25],"type":"VEC3"},{"bufferView":1,"componentType":5126,"count":96,"max":[1,1,1],"min":[-1,-1,-1],"type":"VEC3"},{"bufferView":2,"componentType":5126,"count":96,"max":[0.497041791677475,0.4453125],"min":[0,0.0390625],"type":"VEC2"},{"bufferView":3,"componentType":5123,"count":132,"max":[95],"min":[0],"type":"SCALAR"},{"bufferView":4,"componentType":5126,"count":72,"max":[0.3062500059604645,0.0625,0.25],"min":[-0.3062500059604645,-0.5625,-0.25],"type":"VEC3"},{"bufferView":5,"componentType":5126,"count":72,"max":[0.8979902863502502,1,0.9284766912460327],"min":[-0.8979902863502502,-0.4400152564048767,-0.9284766912460327],"type":"VEC3"},{"bufferView":6,"componentType":5126,"count":72,"max":[0.29609376192092896,0.3515625],"min":[0.00163074501324445,0.109375],"type":"VEC2"},{"bufferView":7,"componentType":5123,"count":72,"max":[71],"min":[0],"type":"SCALAR"},{"bufferView":8,"componentType":5126,"count":124,"max":[0.4669557809829712,0.5601949691772461,0.4375],"min":[-0.4669557809829712,-0.05344986543059349,-0.3125],"type":"VEC3"},{"bufferView":9,"componentType":5126,"count":124,"max":[1,1,1],"min":[-1,-0.8944271802902222,-0.4470570385456085],"type":"VEC3"},{"bufferView":10,"componentType":5126,"count":124,"max":[0.5,0.4921875],"min":[0,0],"type":"VEC2"},{"bufferView":11,"componentType":5123,"count":180,"max":[123],"min":[0],"type":"SCALAR"},{"bufferView":12,"componentType":5126,"count":192,"max":[0.4375,0.5,0.3125],"min":[-0.4375,-0.09760860353708267,-0.39058688282966614],"type":"VEC3"},{"bufferView":13,"componentType":5126,"count":192,"max":[1,1,1],"min":[-1,-1,-1],"type":"VEC3"},{"bufferView":14,"componentType":5126,"count":192,"max":[0.39688360691070557,0.3359375],"min":[0,0],"type":"VEC2"},{"bufferView":15,"componentType":5123,"count":276,"max":[191],"min":[0],"type":"SCALAR"},{"bufferView":16,"componentType":5126,"count":96,"max":[0.125,0.375,0.25],"min":[-0.125,0.125,-0.25],"type":"VEC3"},{"bufferView":17,"componentType":5126,"count":96,"max":[1,1,1],"min":[-1,-1,-1],"type":"VEC3"},{"bufferView":18,"componentType":5126,"count":96,"max":[0.497041791677475,0.4375],"min":[0.1015625,0.0625],"type":"VEC2"},{"bufferView":19,"componentType":5123,"count":132,"max":[95],"min":[0],"type":"SCALAR"},{"bufferView":20,"componentType":5126,"count":96,"max":[0.125,0.375,0.25],"min":[-0.125,0.125,-0.25],"type":"VEC3"},{"bufferView":21,"componentType":5126,"count":96,"max":[1,1,1],"min":[-1,-1,-1],"type":"VEC3"},{"bufferView":22,"componentType":5126,"count":96,"max":[0.5048543214797974,0.4609375],"min":[0,0.028014063835144043],"type":"VEC2"},{"bufferView":23,"componentType":5123,"count":132,"max":[95],"min":[0],"type":"SCALAR"},{"bufferView":24,"componentType":5126,"count":96,"max":[0.125,0.375,0.25],"min":[-0.125,0.125,-0.25],"type":"VEC3"},{"bufferView":25,"componentType":5126,"count":96,"max":[1,1,1],"min":[-1,-1,-1],"type":"VEC3"},{"bufferView":26,"componentType":5126,"count":96,"max":[0.5048543214797974,0.484375],"min":[0.041124217212200165,0],"type":"VEC2"},{"bufferView":27,"componentType":5123,"count":132,"max":[95],"min":[0],"type":"SCALAR"},{"bufferView":28,"componentType":5126,"count":96,"max":[0.125,0.375,0.25],"min":[-0.125,0.125,-0.25],"type":"VEC3"},{"bufferView":29,"componentType":5126,"count":96,"max":[1,1,1],"min":[-1,-1,-1],"type":"VEC3"},{"bufferView":30,"componentType":5126,"count":96,"max":[0.4814169406890869,0.484375],"min":[0.0234375,0.109375],"type":"VEC2"},{"bufferView":31,"componentType":5123,"count":132,"max":[95],"min":[0],"type":"SCALAR"},{"bufferView":32,"componentType":5126,"count":96,"max":[0.125,0.375,0.25],"min":[-0.125,0.125,-0.25],"type":"VEC3"},{"bufferView":33,"componentType":5126,"count":96,"max":[1,1,1],"min":[-1,-1,-1],"type":"VEC3"},{"bufferView":34,"componentType":5126,"count":96,"max":[0.4814169406890869,0.484375],"min":[0.0029581973794847727,0.0390625],"type":"VEC2"},{"bufferView":35,"componentType":5123,"count":132,"max":[95],"min":[0],"type":"SCALAR"},{"bufferView":36,"componentType":5126,"count":24,"max":[0.02500000037252903,0.26249998807907104,0.10625000298023224],"min":[-0.02500000037252903,0.23749999701976776,-0.10625000298023224],"type":"VEC3"},{"bufferView":37,"componentType":5126,"count":24,"max":[1,1,1],"min":[-1,-1,-1],"type":"VEC3"},{"bufferView":38,"componentType":5126,"count":24,"max":[1,1],"min":[0,0],"type":"VEC2"},{"bufferView":39,"componentType":5123,"count":36,"max":[23],"min":[0],"type":"SCALAR"},{"bufferView":40,"componentType":5126,"count":24,"max":[0.02500000037252903,0.26249998807907104,0.04374999925494194],"min":[-0.02500000037252903,0.23749999701976776,-0.04374999925494194],"type":"VEC3"},{"bufferView":41,"componentType":5126,"count":24,"max":[1,1,1],"min":[-1,-1,-1],"type":"VEC3"},{"bufferView":42,"componentType":5126,"count":24,"max":[0.3125,0.3125],"min":[0,0],"type":"VEC2"},{"bufferView":43,"componentType":5123,"count":36,"max":[23],"min":[0],"type":"SCALAR"},{"bufferView":44,"componentType":5126,"count":24,"max":[0.02500000037252903,0.26249998807907104,0.04374999925494194],"min":[-0.02500000037252903,0.23749999701976776,-0.04374999925494194],"type":"VEC3"},{"bufferView":45,"componentType":5126,"count":24,"max":[1,1,1],"min":[-1,-1,-1],"type":"VEC3"},{"bufferView":46,"componentType":5126,"count":24,"max":[1,1],"min":[0,0],"type":"VEC2"},{"bufferView":47,"componentType":5123,"count":36,"max":[23],"min":[0],"type":"SCALAR"},{"bufferView":48,"componentType":5126,"count":3,"max":[0.5833333134651184],"min":[0],"type":"SCALAR"},{"bufferView":49,"componentType":5126,"count":3,"max":[0,0.5187732577323914,0,1],"min":[0,0,0,0.8549118638038635],"type":"VEC4"},{"bufferView":50,"componentType":5126,"count":3,"max":[0.5833333134651184],"min":[0],"type":"SCALAR"},{"bufferView":51,"componentType":5126,"count":3,"max":[0.0625,-0.125,0.375],"min":[-0.0625,-0.125,0.375],"type":"VEC3"},{"bufferView":52,"componentType":5126,"count":3,"max":[0.5833333134651184],"min":[0],"type":"SCALAR"},{"bufferView":53,"componentType":5126,"count":3,"max":[0,0,0,1],"min":[0,-0.5735764503479004,0,0.8191520571708679],"type":"VEC4"},{"bufferView":54,"componentType":5126,"count":3,"max":[0.5833333134651184],"min":[0],"type":"SCALAR"},{"bufferView":55,"componentType":5126,"count":3,"max":[0,0.40274667739868164,0,1],"min":[0,0,0,0.9153114557266235],"type":"VEC4"},{"bufferView":56,"componentType":5126,"count":3,"max":[0.5833333134651184],"min":[0],"type":"SCALAR"},{"bufferView":57,"componentType":5126,"count":3,"max":[0,0,0,1],"min":[0,-0.3826834261417389,0,0.9238795042037964],"type":"VEC4"},{"bufferView":58,"componentType":5126,"count":3,"max":[0.5833333134651184],"min":[0],"type":"SCALAR"},{"bufferView":59,"componentType":5126,"count":3,"max":[0.1875,0.375,1.8125],"min":[-0.125,0.375,1.8125],"type":"VEC3"},{"bufferView":60,"componentType":5126,"count":3,"max":[0.5833333134651184],"min":[0],"type":"SCALAR"},{"bufferView":61,"componentType":5126,"count":3,"max":[-0.02500000037252903,0.5625,-0.3125],"min":[-0.02500000037252903,0.5625,-0.625],"type":"VEC3"}],"materials":[{"pbrMetallicRoughness":{"metallicFactor":0,"roughnessFactor":1,"baseColorTexture":{"index":0}},"alphaMode":"MASK","alphaCutoff":0.05,"doubleSided":true},{"pbrMetallicRoughness":{"metallicFactor":0,"roughnessFactor":1,"baseColorTexture":{"index":1}},"alphaMode":"MASK","alphaCutoff":0.05,"doubleSided":true}],"textures":[{"sampler":0,"source":0,"name":"texture"},{"sampler":1,"source":1,"name":"texture"}],"samplers":[{"magFilter":9728,"minFilter":9728,"wrapS":33071,"wrapT":33071},{"magFilter":9728,"minFilter":9728,"wrapS":33071,"wrapT":33071}],"images":[{"mimeType":"image/png","uri":"data:image/png;base64,"},{"mimeType":"image/png","uri":"data:image/png;base64,"}],"meshes":[{"primitives":[{"mode":4,"attributes":{"POSITION":0,"NORMAL":1,"TEXCOORD_0":2},"indices":3,"material":0}]},{"primitives":[{"mode":4,"attributes":{"POSITION":4,"NORMAL":5,"TEXCOORD_0":6},"indices":7,"material":0}]},{"primitives":[{"mode":4,"attributes":{"POSITION":8,"NORMAL":9,"TEXCOORD_0":10},"indices":11,"material":0}]},{"primitives":[{"mode":4,"attributes":{"POSITION":12,"NORMAL":13,"TEXCOORD_0":14},"indices":15,"material":0}]},{"primitives":[{"mode":4,"attributes":{"POSITION":16,"NORMAL":17,"TEXCOORD_0":18},"indices":19,"material":0}]},{"primitives":[{"mode":4,"attributes":{"POSITION":20,"NORMAL":21,"TEXCOORD_0":22},"indices":23,"material":0}]},{"primitives":[{"mode":4,"attributes":{"POSITION":24,"NORMAL":25,"TEXCOORD_0":26},"indices":27,"material":0}]},{"primitives":[{"mode":4,"attributes":{"POSITION":28,"NORMAL":29,"TEXCOORD_0":30},"indices":31,"material":0}]},{"primitives":[{"mode":4,"attributes":{"POSITION":32,"NORMAL":33,"TEXCOORD_0":34},"indices":35,"material":0}]},{"primitives":[{"mode":4,"attributes":{"POSITION":36,"NORMAL":37,"TEXCOORD_0":38},"indices":39,"material":1}]},{"primitives":[{"mode":4,"attributes":{"POSITION":40,"NORMAL":41,"TEXCOORD_0":42},"indices":43,"material":1}]},{"primitives":[{"mode":4,"attributes":{"POSITION":44,"NORMAL":45,"TEXCOORD_0":46},"indices":47,"material":1}]}],"animations":[{"name":"animation","samplers":[{"input":48,"output":49,"interpolation":"LINEAR"},{"input":50,"output":51,"interpolation":"LINEAR"},{"input":52,"output":53,"interpolation":"LINEAR"},{"input":54,"output":55,"interpolation":"LINEAR"},{"input":56,"output":57,"interpolation":"LINEAR"},{"input":58,"output":59,"interpolation":"LINEAR"},{"input":60,"output":61,"interpolation":"LINEAR"}],"channels":[{"sampler":0,"target":{"node":5,"path":"rotation"}},{"sampler":1,"target":{"node":5,"path":"translation"}},{"sampler":2,"target":{"node":7,"path":"rotation"}},{"sampler":3,"target":{"node":9,"path":"rotation"}},{"sampler":4,"target":{"node":12,"path":"rotation"}},{"sampler":5,"target":{"node":12,"path":"translation"}},{"sampler":6,"target":{"node":16,"path":"translation"}}]}]}