{"asset":{"version":"2.0","generator":"Blockbench 4.12.2 glTF exporter"},"scenes":[{"nodes":[6],"name":"blockbench_export"}],"scene":0,"nodes":[{"rotation":[0.5000000037252899,0.4999999962747101,0.4999999962747092,0.5000000037252907],"translation":[0,-0.0625,0],"name":"cuboid","mesh":0},{"translation":[0,-0.0625,0],"name":"beveled_cuboid","mesh":1},{"rotation":[-1.1050914423645783e-15,0.7071067720614871,-1.1050914138426457e-15,0.7071067903116078],"translation":[0,-0.0625,0],"name":"cuboid","mesh":2},{"rotation":[-1.1050914423645783e-15,0.7071067720614871,-1.1050914138426457e-15,0.7071067903116078],"translation":[0,-0.0625,0],"name":"cuboid","mesh":3},{"rotation":[0.5000000037252899,0.4999999962747101,0.4999999962747092,0.5000000037252907],"translation":[0,-0.0625,0],"name":"cuboid","mesh":4},{"translation":[0,0.25,0.375],"name":"bone","children":[0,1,2,3,4]},{"children":[5]}],"bufferViews":[{"buffer":0,"byteOffset":0,"byteLength":288,"target":34962,"byteStride":12},{"buffer":0,"byteOffset":288,"byteLength":288,"target":34962,"byteStride":12},{"buffer":0,"byteOffset":576,"byteLength":192,"target":34962,"byteStride":8},{"buffer":0,"byteOffset":768,"byteLength":72,"target":34963},{"buffer":0,"byteOffset":840,"byteLength":1152,"target":34962,"byteStride":12},{"buffer":0,"byteOffset":1992,"byteLength":1152,"target":34962,"byteStride":12},{"buffer":0,"byteOffset":3144,"byteLength":768,"target":34962,"byteStride":8},{"buffer":0,"byteOffset":3912,"byteLength":264,"target":34963},{"buffer":0,"byteOffset":4176,"byteLength":288,"target":34962,"byteStride":12},{"buffer":0,"byteOffset":4464,"byteLength":288,"target":34962,"byteStride":12},{"buffer":0,"byteOffset":4752,"byteLength":192,"target":34962,"byteStride":8},{"buffer":0,"byteOffset":4944,"byteLength":72,"target":34963},{"buffer":0,"byteOffset":5016,"byteLength":288,"target":34962,"byteStride":12},{"buffer":0,"byteOffset":5304,"byteLength":288,"target":34962,"byteStride":12},{"buffer":0,"byteOffset":5592,"byteLength":192,"target":34962,"byteStride":8},{"buffer":0,"byteOffset":5784,"byteLength":72,"target":34963},{"buffer":0,"byteOffset":5856,"byteLength":288,"target":34962,"byteStride":12},{"buffer":0,"byteOffset":6144,"byteLength":288,"target":34962,"byteStride":12},{"buffer":0,"byteOffset":6432,"byteLength":192,"target":34962,"byteStride":8},{"buffer":0,"byteOffset":6624,"byteLength":72,"target":34963},{"buffer":0,"byteOffset":6696,"byteLength":12},{"buffer":0,"byteOffset":6708,"byteLength":48}],"buffers":[{"byteLength":6756,"uri":"data:application/octet-stream;base64,"}],"accessors":[{"bufferView":0,"componentType":5126,"count":24,"max":[-0.078125,-0.578125,0.125],"min":[-0.171875,-0.859375,-0.125],"type":"VEC3"},{"bufferView":1,"componentType":5126,"count":24,"max":[1,1,1],"min":[-1,-1,-1],"type":"VEC3"},{"bufferView":2,"componentType":5126,"count":24,"max":[0.84375,0.90625],"min":[0.09375,0],"type":"VEC2"},{"bufferView":3,"componentType":5123,"count":36,"max":[23],"min":[0],"type":"SCALAR"},{"bufferView":4,"componentType":5126,"count":96,"max":[0.125,0.1875,0.0625],"min":[-0.125,-0.0625,-0.5625],"type":"VEC3"},{"bufferView":5,"componentType":5126,"count":96,"max":[1,1,1],"min":[-1,-1,-1],"type":"VEC3"},{"bufferView":6,"componentType":5126,"count":96,"max":[0.9375,0.875],"min":[0,0],"type":"VEC2"},{"bufferView":7,"componentType":5123,"count":132,"max":[95],"min":[0],"type":"SCALAR"},{"bufferView":8,"componentType":5126,"count":24,"max":[0.796875,0.140625,0.062499985098838806],"min":[0.453125,-0.015625,-0.0625000149011612],"type":"VEC3"},{"bufferView":9,"componentType":5126,"count":24,"max":[1,1,1],"min":[-1,-1,-1],"type":"VEC3"},{"bufferView":10,"componentType":5126,"count":24,"max":[0.90625,0.9375],"min":[0,0],"type":"VEC2"},{"bufferView":11,"componentType":5123,"count":36,"max":[23],"min":[0],"type":"SCALAR"},{"bufferView":12,"componentType":5126,"count":24,"max":[0.828125,0.203125,0.0937499850988388],"min":[0.609375,-0.078125,-0.0937500149011612],"type":"VEC3"},{"bufferView":13,"componentType":5126,"count":24,"max":[1,1,1],"min":[-1,-1,-1],"type":"VEC3"},{"bufferView":14,"componentType":5126,"count":24,"max":[0.8125,0.78125],"min":[0.28125,0.1875],"type":"VEC2"},{"bufferView":15,"componentType":5123,"count":36,"max":[23],"min":[0],"type":"SCALAR"},{"bufferView":16,"componentType":5126,"count":24,"max":[0.296875,-0.578125,0.1249999925494194],"min":[0.203125,-0.859375,-0.125],"type":"VEC3"},{"bufferView":17,"componentType":5126,"count":24,"max":[1,1,1],"min":[-1,-1,-1],"type":"VEC3"},{"bufferView":18,"componentType":5126,"count":24,"max":[0.625,0.875],"min":[0,0],"type":"VEC2"},{"bufferView":19,"componentType":5123,"count":36,"max":[23],"min":[0],"type":"SCALAR"},{"bufferView":20,"componentType":5126,"count":3,"max":[1.2083333730697632],"min":[0],"type":"SCALAR"},{"bufferView":21,"componentType":5126,"count":3,"max":[0.7071067690849304,0,0,0.9914448857307434],"min":[0.13052618503570557,0,0,0.7071067690849304],"type":"VEC4"}],"materials":[{"pbrMetallicRoughness":{"metallicFactor":0,"roughnessFactor":1,"baseColorTexture":{"index":0}},"alphaMode":"MASK","alphaCutoff":0.05,"doubleSided":true}],"textures":[{"sampler":0,"source":0,"name":"texture"}],"samplers":[{"magFilter":9728,"minFilter":9728,"wrapS":33071,"wrapT":33071}],"images":[{"mimeType":"image/png","uri":"data:image/png;base64,"}],"meshes":[{"primitives":[{"mode":4,"attributes":{"POSITION":0,"NORMAL":1,"TEXCOORD_0":2},"indices":3,"material":0}]},{"primitives":[{"mode":4,"attributes":{"POSITION":4,"NORMAL":5,"TEXCOORD_0":6},"indices":7,"material":0}]},{"primitives":[{"mode":4,"attributes":{"POSITION":8,"NORMAL":9,"TEXCOORD_0":10},"indices":11,"material":0}]},{"primitives":[{"mode":4,"attributes":{"POSITION":12,"NORMAL":13,"TEXCOORD_0":14},"indices":15,"material":0}]},{"primitives":[{"mode":4,"attributes":{"POSITION":16,"NORMAL":17,"TEXCOORD_0":18},"indices":19,"material":0}]}],"animations":[{"name":"animation","samplers":[{"input":20,"output":21,"interpolation":"LINEAR"}],"channels":[{"sampler":0,"target":{"node":5,"path":"rotation"}}]}]}