{"asset":{"version":"2.0","generator":"Blockbench 4.12.2 glTF exporter"},"scenes":[{"nodes":[8],"name":"blockbench_export"}],"scene":0,"nodes":[{"translation":[0,0,0.125],"name":"beveled_cuboid","mesh":0},{"translation":[-0.03125,0.25,-0.3125],"name":"cuboid","mesh":1},{"translation":[0.03125,0.25,-0.5625],"name":"cuboid","mesh":2},{"translation":[-0.09375,0.25,-0.5625],"name":"cuboid","mesh":3},{"rotation":[0.3214394653031616,0,0,0.9469301294951057],"translation":[0.09375,0.3500000000000001,-0.36249999999999993],"name":"cuboid","mesh":4},{"rotation":[0.3214394653031616,0,0,0.9469301294951057],"translation":[0.09375,0.2875000000000001,-0.36249999999999993],"name":"cuboid","mesh":5},{"rotation":[0.3214394653031616,0,0,0.9469301294951057],"translation":[-0.09375,0.2875000000000001,-0.36249999999999993],"name":"cuboid","mesh":6},{"rotation":[0.3214394653031616,0,0,0.9469301294951057],"translation":[-0.09375,0.3500000000000001,-0.36249999999999993],"name":"cuboid","mesh":7},{"children":[0,1,2,3,4,5,6,7]}],"bufferViews":[{"buffer":0,"byteOffset":0,"byteLength":1152,"target":34962,"byteStride":12},{"buffer":0,"byteOffset":1152,"byteLength":1152,"target":34962,"byteStride":12},{"buffer":0,"byteOffset":2304,"byteLength":768,"target":34962,"byteStride":8},{"buffer":0,"byteOffset":3072,"byteLength":264,"target":34963},{"buffer":0,"byteOffset":3336,"byteLength":288,"target":34962,"byteStride":12},{"buffer":0,"byteOffset":3624,"byteLength":288,"target":34962,"byteStride":12},{"buffer":0,"byteOffset":3912,"byteLength":192,"target":34962,"byteStride":8},{"buffer":0,"byteOffset":4104,"byteLength":72,"target":34963},{"buffer":0,"byteOffset":4176,"byteLength":288,"target":34962,"byteStride":12},{"buffer":0,"byteOffset":4464,"byteLength":288,"target":34962,"byteStride":12},{"buffer":0,"byteOffset":4752,"byteLength":192,"target":34962,"byteStride":8},{"buffer":0,"byteOffset":4944,"byteLength":72,"target":34963},{"buffer":0,"byteOffset":5016,"byteLength":288,"target":34962,"byteStride":12},{"buffer":0,"byteOffset":5304,"byteLength":288,"target":34962,"byteStride":12},{"buffer":0,"byteOffset":5592,"byteLength":192,"target":34962,"byteStride":8},{"buffer":0,"byteOffset":5784,"byteLength":72,"target":34963},{"buffer":0,"byteOffset":5856,"byteLength":288,"target":34962,"byteStride":12},{"buffer":0,"byteOffset":6144,"byteLength":288,"target":34962,"byteStride":12},{"buffer":0,"byteOffset":6432,"byteLength":192,"target":34962,"byteStride":8},{"buffer":0,"byteOffset":6624,"byteLength":72,"target":34963},{"buffer":0,"byteOffset":6696,"byteLength":288,"target":34962,"byteStride":12},{"buffer":0,"byteOffset":6984,"byteLength":288,"target":34962,"byteStride":12},{"buffer":0,"byteOffset":7272,"byteLength":192,"target":34962,"byteStride":8},{"buffer":0,"byteOffset":7464,"byteLength":72,"target":34963},{"buffer":0,"byteOffset":7536,"byteLength":288,"target":34962,"byteStride":12},{"buffer":0,"byteOffset":7824,"byteLength":288,"target":34962,"byteStride":12},{"buffer":0,"byteOffset":8112,"byteLength":192,"target":34962,"byteStride":8},{"buffer":0,"byteOffset":8304,"byteLength":72,"target":34963},{"buffer":0,"byteOffset":8376,"byteLength":288,"target":34962,"byteStride":12},{"buffer":0,"byteOffset":8664,"byteLength":288,"target":34962,"byteStride":12},{"buffer":0,"byteOffset":8952,"byteLength":192,"target":34962,"byteStride":8},{"buffer":0,"byteOffset":9144,"byteLength":72,"target":34963}],"buffers":[{"byteLength":9216,"uri":"data:application/octet-stream;base64,"}],"accessors":[{"bufferView":0,"componentType":5126,"count":96,"max":[0.125,0.375,0.3125],"min":[-0.125,0.125,-0.3125],"type":"VEC3"},{"bufferView":1,"componentType":5126,"count":96,"max":[1,1,1],"min":[-1,-1,-1],"type":"VEC3"},{"bufferView":2,"componentType":5126,"count":96,"max":[0.71875,0.6875],"min":[0,0],"type":"VEC2"},{"bufferView":3,"componentType":5123,"count":132,"max":[95],"min":[0],"type":"SCALAR"},{"bufferView":4,"componentType":5126,"count":24,"max":[0.15625,0.125,0.15625],"min":[-0.09375,-0.125,-0.09375],"type":"VEC3"},{"bufferView":5,"componentType":5126,"count":24,"max":[1,1,1],"min":[-1,-1,-1],"type":"VEC3"},{"bufferView":6,"componentType":5126,"count":24,"max":[0.65625,0.59375],"min":[0.125,0],"type":"VEC2"},{"bufferView":7,"componentType":5123,"count":36,"max":[23],"min":[0],"type":"SCALAR"},{"bufferView":8,"componentType":5126,"count":24,"max":[0.0625,0.02500000037252903,0.15625],"min":[0,-0.02500000037252903,0.04374999925494194],"type":"VEC3"},{"bufferView":9,"componentType":5126,"count":24,"max":[1,1,1],"min":[-1,-1,-1],"type":"VEC3"},{"bufferView":10,"componentType":5126,"count":24,"max":[0.71875,0.6875],"min":[0.25,0.25],"type":"VEC2"},{"bufferView":11,"componentType":5123,"count":36,"max":[23],"min":[0],"type":"SCALAR"},{"bufferView":12,"componentType":5126,"count":24,"max":[0.0625,0.02500000037252903,0.15625],"min":[0,-0.02500000037252903,0.04374999925494194],"type":"VEC3"},{"bufferView":13,"componentType":5126,"count":24,"max":[1,1,1],"min":[-1,-1,-1],"type":"VEC3"},{"bufferView":14,"componentType":5126,"count":24,"max":[0.75,0.75],"min":[0.1875,0.09375],"type":"VEC2"},{"bufferView":15,"componentType":5123,"count":36,"max":[23],"min":[0],"type":"SCALAR"},{"bufferView":16,"componentType":5126,"count":24,"max":[0.0625,0.02500000037252903,0.15625],"min":[0,-0.02500000037252903,0.04374999925494194],"type":"VEC3"},{"bufferView":17,"componentType":5126,"count":24,"max":[1,1,1],"min":[-1,-1,-1],"type":"VEC3"},{"bufferView":18,"componentType":5126,"count":24,"max":[0.6875,0.75],"min":[0,0.4375],"type":"VEC2"},{"bufferView":19,"componentType":5123,"count":36,"max":[23],"min":[0],"type":"SCALAR"},{"bufferView":20,"componentType":5126,"count":24,"max":[0.0625,0.02500000037252903,0.15625],"min":[0,-0.02500000037252903,0.04374999925494194],"type":"VEC3"},{"bufferView":21,"componentType":5126,"count":24,"max":[1,1,1],"min":[-1,-1,-1],"type":"VEC3"},{"bufferView":22,"componentType":5126,"count":24,"max":[0.71875,0.75],"min":[0,0],"type":"VEC2"},{"bufferView":23,"componentType":5123,"count":36,"max":[23],"min":[0],"type":"SCALAR"},{"bufferView":24,"componentType":5126,"count":24,"max":[0,0.02500000037252903,0.15625],"min":[-0.0625,-0.02500000037252903,0.04374999925494194],"type":"VEC3"},{"bufferView":25,"componentType":5126,"count":24,"max":[1,1,1],"min":[-1,-1,-1],"type":"VEC3"},{"bufferView":26,"componentType":5126,"count":24,"max":[0.15625,0.15625],"min":[0,0],"type":"VEC2"},{"bufferView":27,"componentType":5123,"count":36,"max":[23],"min":[0],"type":"SCALAR"},{"bufferView":28,"componentType":5126,"count":24,"max":[0,0.02500000037252903,0.15625],"min":[-0.0625,-0.02500000037252903,0.04374999925494194],"type":"VEC3"},{"bufferView":29,"componentType":5126,"count":24,"max":[1,1,1],"min":[-1,-1,-1],"type":"VEC3"},{"bufferView":30,"componentType":5126,"count":24,"max":[0.15625,0.15625],"min":[0,0],"type":"VEC2"},{"bufferView":31,"componentType":5123,"count":36,"max":[23],"min":[0],"type":"SCALAR"}],"materials":[{"pbrMetallicRoughness":{"metallicFactor":0,"roughnessFactor":1,"baseColorTexture":{"index":0}},"alphaMode":"MASK","alphaCutoff":0.05,"doubleSided":true}],"textures":[{"sampler":0,"source":0,"name":"texture"}],"samplers":[{"magFilter":9728,"minFilter":9728,"wrapS":33071,"wrapT":33071}],"images":[{"mimeType":"image/png","uri":"data:image/png;base64,"}],"meshes":[{"primitives":[{"mode":4,"attributes":{"POSITION":0,"NORMAL":1,"TEXCOORD_0":2},"indices":3,"material":0}]},{"primitives":[{"mode":4,"attributes":{"POSITION":4,"NORMAL":5,"TEXCOORD_0":6},"indices":7,"material":0}]},{"primitives":[{"mode":4,"attributes":{"POSITION":8,"NORMAL":9,"TEXCOORD_0":10},"indices":11,"material":0}]},{"primitives":[{"mode":4,"attributes":{"POSITION":12,"NORMAL":13,"TEXCOORD_0":14},"indices":15,"material":0}]},{"primitives":[{"mode":4,"attributes":{"POSITION":16,"NORMAL":17,"TEXCOORD_0":18},"indices":19,"material":0}]},{"primitives":[{"mode":4,"attributes":{"POSITION":20,"NORMAL":21,"TEXCOORD_0":22},"indices":23,"material":0}]},{"primitives":[{"mode":4,"attributes":{"POSITION":24,"NORMAL":25,"TEXCOORD_0":26},"indices":27,"material":0}]},{"primitives":[{"mode":4,"attributes":{"POSITION":28,"NORMAL":29,"TEXCOORD_0":30},"indices":31,"material":0}]}]}