{"asset":{"version":"2.0","generator":"Blockbench 4.12.3 glTF exporter"},"scenes":[{"nodes":[14],"name":"blockbench_export"}],"scene":0,"nodes":[{"rotation":[0,-0.7071067811865475,0,0.7071067811865476],"translation":[0,0.25,-0.125],"name":"cuboid","mesh":0},{"translation":[0.125,-0.25,0.0625],"name":"cuboid","mesh":1},{"translation":[-0.125,-0.25,-0.25],"name":"cuboid","mesh":2},{"translation":[0.125,-0.25,-0.25],"name":"cuboid","mesh":3},{"translation":[-0.125,-0.25,0.0625],"name":"cuboid","mesh":4},{"translation":[0.125,-0.1875,-0.125],"name":"cuboid","mesh":5},{"translation":[-0.125,-0.1875,-0.125],"name":"cuboid","mesh":6},{"translation":[0,0.25,0.375],"name":"cuboid","mesh":7},{"translation":[-0.03125,-0.5,0.3125],"name":"cuboid","mesh":8},{"rotation":[0,-1,0,6.123233995736766e-17],"translation":[0.03125,-0.5,-0.3125],"name":"cuboid","mesh":9},{"translation":[0,-0.5625,0],"name":"cylinder","mesh":10},{"translation":[0,0.9375,-0.0625],"name":"Propeller1","children":[8,9,10]},{"rotation":[-0.7071067811865476,0.7071067811865475,4.329780281177466e-17,4.329780281177467e-17],"translation":[-0.01875,0.125,0],"name":"cuboid","mesh":11},{"rotation":[0,0,-0.7071067811865475,0.7071067811865476],"translation":[0,0.6375,0.6875],"name":"Propeller2","children":[12]},{"children":[0,1,2,3,4,5,6,7,11,13]}],"bufferViews":[{"buffer":0,"byteOffset":0,"byteLength":912,"target":34962,"byteStride":12},{"buffer":0,"byteOffset":912,"byteLength":912,"target":34962,"byteStride":12},{"buffer":0,"byteOffset":1824,"byteLength":608,"target":34962,"byteStride":8},{"buffer":0,"byteOffset":2432,"byteLength":216,"target":34963},{"buffer":0,"byteOffset":2648,"byteLength":288,"target":34962,"byteStride":12},{"buffer":0,"byteOffset":2936,"byteLength":288,"target":34962,"byteStride":12},{"buffer":0,"byteOffset":3224,"byteLength":192,"target":34962,"byteStride":8},{"buffer":0,"byteOffset":3416,"byteLength":72,"target":34963},{"buffer":0,"byteOffset":3488,"byteLength":288,"target":34962,"byteStride":12},{"buffer":0,"byteOffset":3776,"byteLength":288,"target":34962,"byteStride":12},{"buffer":0,"byteOffset":4064,"byteLength":192,"target":34962,"byteStride":8},{"buffer":0,"byteOffset":4256,"byteLength":72,"target":34963},{"buffer":0,"byteOffset":4328,"byteLength":288,"target":34962,"byteStride":12},{"buffer":0,"byteOffset":4616,"byteLength":288,"target":34962,"byteStride":12},{"buffer":0,"byteOffset":4904,"byteLength":192,"target":34962,"byteStride":8},{"buffer":0,"byteOffset":5096,"byteLength":72,"target":34963},{"buffer":0,"byteOffset":5168,"byteLength":288,"target":34962,"byteStride":12},{"buffer":0,"byteOffset":5456,"byteLength":288,"target":34962,"byteStride":12},{"buffer":0,"byteOffset":5744,"byteLength":192,"target":34962,"byteStride":8},{"buffer":0,"byteOffset":5936,"byteLength":72,"target":34963},{"buffer":0,"byteOffset":6008,"byteLength":480,"target":34962,"byteStride":12},{"buffer":0,"byteOffset":6488,"byteLength":480,"target":34962,"byteStride":12},{"buffer":0,"byteOffset":6968,"byteLength":320,"target":34962,"byteStride":8},{"buffer":0,"byteOffset":7288,"byteLength":120,"target":34963},{"buffer":0,"byteOffset":7408,"byteLength":480,"target":34962,"byteStride":12},{"buffer":0,"byteOffset":7888,"byteLength":480,"target":34962,"byteStride":12},{"buffer":0,"byteOffset":8368,"byteLength":320,"target":34962,"byteStride":8},{"buffer":0,"byteOffset":8688,"byteLength":120,"target":34963},{"buffer":0,"byteOffset":8808,"byteLength":288,"target":34962,"byteStride":12},{"buffer":0,"byteOffset":9096,"byteLength":288,"target":34962,"byteStride":12},{"buffer":0,"byteOffset":9384,"byteLength":192,"target":34962,"byteStride":8},{"buffer":0,"byteOffset":9576,"byteLength":72,"target":34963},{"buffer":0,"byteOffset":9648,"byteLength":480,"target":34962,"byteStride":12},{"buffer":0,"byteOffset":10128,"byteLength":480,"target":34962,"byteStride":12},{"buffer":0,"byteOffset":10608,"byteLength":320,"target":34962,"byteStride":8},{"buffer":0,"byteOffset":10928,"byteLength":120,"target":34963},{"buffer":0,"byteOffset":11048,"byteLength":480,"target":34962,"byteStride":12},{"buffer":0,"byteOffset":11528,"byteLength":480,"target":34962,"byteStride":12},{"buffer":0,"byteOffset":12008,"byteLength":320,"target":34962,"byteStride":8},{"buffer":0,"byteOffset":12328,"byteLength":120,"target":34963},{"buffer":0,"byteOffset":12448,"byteLength":1440,"target":34962,"byteStride":12},{"buffer":0,"byteOffset":13888,"byteLength":1440,"target":34962,"byteStride":12},{"buffer":0,"byteOffset":15328,"byteLength":960,"target":34962,"byteStride":8},{"buffer":0,"byteOffset":16288,"byteLength":288,"target":34963},{"buffer":0,"byteOffset":16576,"byteLength":480,"target":34962,"byteStride":12},{"buffer":0,"byteOffset":17056,"byteLength":480,"target":34962,"byteStride":12},{"buffer":0,"byteOffset":17536,"byteLength":320,"target":34962,"byteStride":8},{"buffer":0,"byteOffset":17856,"byteLength":120,"target":34963},{"buffer":0,"byteOffset":17976,"byteLength":20},{"buffer":0,"byteOffset":17996,"byteLength":80},{"buffer":0,"byteOffset":18076,"byteLength":16},{"buffer":0,"byteOffset":18092,"byteLength":64}],"buffers":[{"byteLength":18156,"uri":"data:application/octet-stream;base64,"}],"accessors":[{"bufferView":0,"componentType":5126,"count":76,"max":[0.3125,0.5,0.25],"min":[-0.3125,0,-0.25],"type":"VEC3"},{"bufferView":1,"componentType":5126,"count":76,"max":[1,1,1],"min":[-1,-1,-1],"type":"VEC3"},{"bufferView":2,"componentType":5126,"count":76,"max":[0.53125,0.4375],"min":[0,0],"type":"VEC2"},{"bufferView":3,"componentType":5123,"count":108,"max":[75],"min":[0],"type":"SCALAR"},{"bufferView":4,"componentType":5126,"count":24,"max":[0,0.5,0.0625],"min":[0,0.25,-0.0625],"type":"VEC3"},{"bufferView":5,"componentType":5126,"count":24,"max":[1,0,0],"min":[-1,0,0],"type":"VEC3"},{"bufferView":6,"componentType":5126,"count":24,"max":[0.125,0.484375],"min":[0,0],"type":"VEC2"},{"bufferView":7,"componentType":5123,"count":36,"max":[23],"min":[0],"type":"SCALAR"},{"bufferView":8,"componentType":5126,"count":24,"max":[0,0.5,0.0625],"min":[0,0.25,-0.0625],"type":"VEC3"},{"bufferView":9,"componentType":5126,"count":24,"max":[1,0,0],"min":[-1,0,0],"type":"VEC3"},{"bufferView":10,"componentType":5126,"count":24,"max":[0.125,0.5625],"min":[0,0],"type":"VEC2"},{"bufferView":11,"componentType":5123,"count":36,"max":[23],"min":[0],"type":"SCALAR"},{"bufferView":12,"componentType":5126,"count":24,"max":[0,0.5,0.0625],"min":[0,0.25,-0.0625],"type":"VEC3"},{"bufferView":13,"componentType":5126,"count":24,"max":[1,0,0],"min":[-1,0,0],"type":"VEC3"},{"bufferView":14,"componentType":5126,"count":24,"max":[0.484375,0.515625],"min":[0,0],"type":"VEC2"},{"bufferView":15,"componentType":5123,"count":36,"max":[23],"min":[0],"type":"SCALAR"},{"bufferView":16,"componentType":5126,"count":24,"max":[0,0.5,0.0625],"min":[0,0.25,-0.0625],"type":"VEC3"},{"bufferView":17,"componentType":5126,"count":24,"max":[1,0,0],"min":[-1,0,0],"type":"VEC3"},{"bufferView":18,"componentType":5126,"count":24,"max":[0.546875,0.515625],"min":[0,0],"type":"VEC2"},{"bufferView":19,"componentType":5123,"count":36,"max":[23],"min":[0],"type":"SCALAR"},{"bufferView":20,"componentType":5126,"count":40,"max":[0.0625,0.375,0.5],"min":[-0.0625,0.1875,-0.5],"type":"VEC3"},{"bufferView":21,"componentType":5126,"count":40,"max":[1,1,1],"min":[-1,-1,-1],"type":"VEC3"},{"bufferView":22,"componentType":5126,"count":40,"max":[0.5625,0.6587843894958496],"min":[0.140625,0.140625],"type":"VEC2"},{"bufferView":23,"componentType":5123,"count":60,"max":[39],"min":[0],"type":"SCALAR"},{"bufferView":24,"componentType":5126,"count":40,"max":[0.0625,0.375,0.5],"min":[-0.0625,0.1875,-0.5],"type":"VEC3"},{"bufferView":25,"componentType":5126,"count":40,"max":[1,1,1],"min":[-1,-1,-1],"type":"VEC3"},{"bufferView":26,"componentType":5126,"count":40,"max":[0.578125,0.6587843894958496],"min":[0.1875,0],"type":"VEC2"},{"bufferView":27,"componentType":5123,"count":60,"max":[39],"min":[0],"type":"SCALAR"},{"bufferView":28,"componentType":5126,"count":24,"max":[0.0625,0.5,0.5],"min":[-0.0625,0.3125,-0.1875],"type":"VEC3"},{"bufferView":29,"componentType":5126,"count":24,"max":[1,1,1],"min":[-1,-1,-1],"type":"VEC3"},{"bufferView":30,"componentType":5126,"count":24,"max":[0.546875,0.59375],"min":[0,0.0625],"type":"VEC2"},{"bufferView":31,"componentType":5123,"count":36,"max":[23],"min":[0],"type":"SCALAR"},{"bufferView":32,"componentType":5126,"count":40,"max":[0.0625,0.5,0.1875],"min":[0,0.375,-0.4375],"type":"VEC3"},{"bufferView":33,"componentType":5126,"count":40,"max":[1,1,1],"min":[-1,-1,-1],"type":"VEC3"},{"bufferView":34,"componentType":5126,"count":40,"max":[0.78125,0.359375],"min":[0,0],"type":"VEC2"},{"bufferView":35,"componentType":5123,"count":60,"max":[39],"min":[0],"type":"SCALAR"},{"bufferView":36,"componentType":5126,"count":40,"max":[0.0625,0.5,0.1875],"min":[0,0.375,-0.4375],"type":"VEC3"},{"bufferView":37,"componentType":5126,"count":40,"max":[1,1,1],"min":[-1,-1,-1],"type":"VEC3"},{"bufferView":38,"componentType":5126,"count":40,"max":[0.78125,0.4140625],"min":[0,0],"type":"VEC2"},{"bufferView":39,"componentType":5123,"count":60,"max":[39],"min":[0],"type":"SCALAR"},{"bufferView":40,"componentType":5126,"count":120,"max":[0.125,0.5625,0.125],"min":[-0.125,-0.0625,-0.125],"type":"VEC3"},{"bufferView":41,"componentType":5126,"count":120,"max":[1,1,1],"min":[-1,-1,-1],"type":"VEC3"},{"bufferView":42,"componentType":5126,"count":120,"max":[0.625,0.65625],"min":[0.0005406250129453838,0],"type":"VEC2"},{"bufferView":43,"componentType":5123,"count":144,"max":[119],"min":[0],"type":"SCALAR"},{"bufferView":44,"componentType":5126,"count":40,"max":[0.0625,0.0625,0.1875],"min":[0,-0.0625,-0.1875],"type":"VEC3"},{"bufferView":45,"componentType":5126,"count":40,"max":[1,1,1],"min":[-1,-1,-1],"type":"VEC3"},{"bufferView":46,"componentType":5126,"count":40,"max":[0.765625,0.671875],"min":[0,0],"type":"VEC2"},{"bufferView":47,"componentType":5123,"count":60,"max":[39],"min":[0],"type":"SCALAR"},{"bufferView":48,"componentType":5126,"count":5,"max":[0.75],"min":[0],"type":"SCALAR"},{"bufferView":49,"componentType":5126,"count":5,"max":[0,0.06540312618017197,0,1],"min":[0,-0.9978589415550232,0,-0.9978589415550232],"type":"VEC4"},{"bufferView":50,"componentType":5126,"count":4,"max":[0.75],"min":[0],"type":"SCALAR"},{"bufferView":51,"componentType":5126,"count":4,"max":[0.7071067690849304,0.7071067690849304,0.7069385051727295,0.7071067690849304],"min":[0,0,-0.7071067690849304,-0.7069385051727295],"type":"VEC4"}],"materials":[{"pbrMetallicRoughness":{"metallicFactor":0,"roughnessFactor":1,"baseColorTexture":{"index":0}},"alphaMode":"MASK","alphaCutoff":0.05,"doubleSided":true},{"pbrMetallicRoughness":{"metallicFactor":0,"roughnessFactor":1,"baseColorTexture":{"index":1}},"alphaMode":"MASK","alphaCutoff":0.05,"doubleSided":true},{"pbrMetallicRoughness":{"metallicFactor":0,"roughnessFactor":1,"baseColorTexture":{"index":2}},"alphaMode":"MASK","alphaCutoff":0.05,"doubleSided":true}],"textures":[{"sampler":0,"source":0,"name":"texture"},{"sampler":1,"source":1,"name":"texture"},{"sampler":2,"source":2,"name":"texture"}],"samplers":[{"magFilter":9728,"minFilter":9728,"wrapS":33071,"wrapT":33071},{"magFilter":9728,"minFilter":9728,"wrapS":33071,"wrapT":33071},{"magFilter":9728,"minFilter":9728,"wrapS":33071,"wrapT":33071}],"images":[{"mimeType":"image/png","uri":"data:image/png;base64,"},{"mimeType":"image/png","uri":"data:image/png;base64,"},{"mimeType":"image/png","uri":"data:image/png;base64,"}],"meshes":[{"primitives":[{"mode":4,"attributes":{"POSITION":0,"NORMAL":1,"TEXCOORD_0":2},"indices":3,"material":0}]},{"primitives":[{"mode":4,"attributes":{"POSITION":4,"NORMAL":5,"TEXCOORD_0":6},"indices":7,"material":0}]},{"primitives":[{"mode":4,"attributes":{"POSITION":8,"NORMAL":9,"TEXCOORD_0":10},"indices":11,"material":0}]},{"primitives":[{"mode":4,"attributes":{"POSITION":12,"NORMAL":13,"TEXCOORD_0":14},"indices":15,"material":0}]},{"primitives":[{"mode":4,"attributes":{"POSITION":16,"NORMAL":17,"TEXCOORD_0":18},"indices":19,"material":0}]},{"primitives":[{"mode":4,"attributes":{"POSITION":20,"NORMAL":21,"TEXCOORD_0":22},"indices":23,"material":0}]},{"primitives":[{"mode":4,"attributes":{"POSITION":24,"NORMAL":25,"TEXCOORD_0":26},"indices":27,"material":0}]},{"primitives":[{"mode":4,"attributes":{"POSITION":28,"NORMAL":29,"TEXCOORD_0":30},"indices":31,"material":0}]},{"primitives":[{"mode":4,"attributes":{"POSITION":32,"NORMAL":33,"TEXCOORD_0":34},"indices":35,"material":1}]},{"primitives":[{"mode":4,"attributes":{"POSITION":36,"NORMAL":37,"TEXCOORD_0":38},"indices":39,"material":1}]},{"primitives":[{"mode":4,"attributes":{"POSITION":40,"NORMAL":41,"TEXCOORD_0":42},"indices":43,"material":1}]},{"primitives":[{"mode":4,"attributes":{"POSITION":44,"NORMAL":45,"TEXCOORD_0":46},"indices":47,"material":2}]}],"animations":[{"name":"animation","samplers":[{"input":48,"output":49,"interpolation":"LINEAR"},{"input":50,"output":51,"interpolation":"LINEAR"}],"channels":[{"sampler":0,"target":{"node":11,"path":"rotation"}},{"sampler":1,"target":{"node":13,"path":"rotation"}}]}]}