{"asset":{"version":"2.0","generator":"Blockbench 4.12.3 glTF exporter"},"scenes":[{"nodes":[5],"name":"blockbench_export"}],"scene":0,"nodes":[{"rotation":[-0.3214394653031616,0,0,0.9469301294951057],"name":"cuboid","mesh":0},{"rotation":[0.02181488503456112,0,0,0.9997620270799091],"translation":[0.125,-0.0625,-0.3125],"name":"cuboid","mesh":1},{"rotation":[0.02181488503456112,0,0,0.9997620270799091],"translation":[0,-0.0625,-0.3125],"name":"cuboid","mesh":2},{"rotation":[0.02181488503456112,0,0,0.9997620270799091],"translation":[-0.125,-0.0625,-0.3125],"name":"cuboid","mesh":3},{"translation":[0,0.0625,-0.1875],"name":"Fist","children":[0,1,2,3]},{"children":[4]}],"bufferViews":[{"buffer":0,"byteOffset":0,"byteLength":336,"target":34962,"byteStride":12},{"buffer":0,"byteOffset":336,"byteLength":336,"target":34962,"byteStride":12},{"buffer":0,"byteOffset":672,"byteLength":224,"target":34962,"byteStride":8},{"buffer":0,"byteOffset":896,"byteLength":72,"target":34963},{"buffer":0,"byteOffset":968,"byteLength":288,"target":34962,"byteStride":12},{"buffer":0,"byteOffset":1256,"byteLength":288,"target":34962,"byteStride":12},{"buffer":0,"byteOffset":1544,"byteLength":192,"target":34962,"byteStride":8},{"buffer":0,"byteOffset":1736,"byteLength":72,"target":34963},{"buffer":0,"byteOffset":1808,"byteLength":288,"target":34962,"byteStride":12},{"buffer":0,"byteOffset":2096,"byteLength":288,"target":34962,"byteStride":12},{"buffer":0,"byteOffset":2384,"byteLength":192,"target":34962,"byteStride":8},{"buffer":0,"byteOffset":2576,"byteLength":72,"target":34963},{"buffer":0,"byteOffset":2648,"byteLength":288,"target":34962,"byteStride":12},{"buffer":0,"byteOffset":2936,"byteLength":288,"target":34962,"byteStride":12},{"buffer":0,"byteOffset":3224,"byteLength":192,"target":34962,"byteStride":8},{"buffer":0,"byteOffset":3416,"byteLength":72,"target":34963}],"buffers":[{"byteLength":3488,"uri":"data:application/octet-stream;base64,"}],"accessors":[{"bufferView":0,"componentType":5126,"count":28,"max":[0.140625,0.390625,0.140625],"min":[-0.140625,0.109375,-0.140625],"type":"VEC3"},{"bufferView":1,"componentType":5126,"count":28,"max":[1,1,1],"min":[-1,-1,-1],"type":"VEC3"},{"bufferView":2,"componentType":5126,"count":28,"max":[0.5234375,0.515625],"min":[0,0],"type":"VEC2"},{"bufferView":3,"componentType":5123,"count":36,"max":[27],"min":[0],"type":"SCALAR"},{"bufferView":4,"componentType":5126,"count":24,"max":[0.03750000149011612,0.28125,0.125],"min":[-0.03750000149011612,0.21875,-0.125],"type":"VEC3"},{"bufferView":5,"componentType":5126,"count":24,"max":[1,1,1],"min":[-1,-1,-1],"type":"VEC3"},{"bufferView":6,"componentType":5126,"count":24,"max":[0.5625,0.5625],"min":[0.1875,0.1875],"type":"VEC2"},{"bufferView":7,"componentType":5123,"count":36,"max":[23],"min":[0],"type":"SCALAR"},{"bufferView":8,"componentType":5126,"count":24,"max":[0.03750000149011612,0.28125,0.125],"min":[-0.03750000149011612,0.21875,-0.125],"type":"VEC3"},{"bufferView":9,"componentType":5126,"count":24,"max":[1,1,1],"min":[-1,-1,-1],"type":"VEC3"},{"bufferView":10,"componentType":5126,"count":24,"max":[0.59375,0.59375],"min":[0,0],"type":"VEC2"},{"bufferView":11,"componentType":5123,"count":36,"max":[23],"min":[0],"type":"SCALAR"},{"bufferView":12,"componentType":5126,"count":24,"max":[0.03750000149011612,0.28125,0.125],"min":[-0.03750000149011612,0.21875,-0.125],"type":"VEC3"},{"bufferView":13,"componentType":5126,"count":24,"max":[1,1,1],"min":[-1,-1,-1],"type":"VEC3"},{"bufferView":14,"componentType":5126,"count":24,"max":[0.59375,0.65625],"min":[0.0625,0.0625],"type":"VEC2"},{"bufferView":15,"componentType":5123,"count":36,"max":[23],"min":[0],"type":"SCALAR"}],"materials":[{"pbrMetallicRoughness":{"metallicFactor":0,"roughnessFactor":1,"baseColorTexture":{"index":0}},"alphaMode":"MASK","alphaCutoff":0.05,"doubleSided":true}],"textures":[{"sampler":0,"source":0,"name":"texture"}],"samplers":[{"magFilter":9728,"minFilter":9728,"wrapS":33071,"wrapT":33071}],"images":[{"mimeType":"image/png","uri":"data:image/png;base64,"}],"meshes":[{"primitives":[{"mode":4,"attributes":{"POSITION":0,"NORMAL":1,"TEXCOORD_0":2},"indices":3,"material":0}]},{"primitives":[{"mode":4,"attributes":{"POSITION":4,"NORMAL":5,"TEXCOORD_0":6},"indices":7,"material":0}]},{"primitives":[{"mode":4,"attributes":{"POSITION":8,"NORMAL":9,"TEXCOORD_0":10},"indices":11,"material":0}]},{"primitives":[{"mode":4,"attributes":{"POSITION":12,"NORMAL":13,"TEXCOORD_0":14},"indices":15,"material":0}]}]}